<mxfile host="app.diagrams.net" modified="2023-04-15T09:44:42.298Z" agent="Mozilla/5.0 (Windows NT 10.0; Win64; x64) AppleWebKit/537.36 (KHTML, like Gecko) Chrome/112.0.0.0 Safari/537.36 Edg/112.0.1722.46" etag="S-DsZsKaBxNA9H3kD4iJ" version="21.1.1" type="github">
  <diagram id="C5RBs43oDa-KdzZeNtuy" name="Page-1">
    <mxGraphModel dx="1342" dy="623" grid="1" gridSize="10" guides="1" tooltips="1" connect="1" arrows="1" fold="1" page="1" pageScale="1" pageWidth="827" pageHeight="1169" math="0" shadow="0">
      <root>
        <mxCell id="WIyWlLk6GJQsqaUBKTNV-0" />
        <mxCell id="WIyWlLk6GJQsqaUBKTNV-1" parent="WIyWlLk6GJQsqaUBKTNV-0" />
        <mxCell id="I4qgjlkOym51_c_RJzPV-0" value="人员类" style="swimlane;fontStyle=1;align=center;verticalAlign=top;childLayout=stackLayout;horizontal=1;startSize=26;horizontalStack=0;resizeParent=1;resizeParentMax=0;resizeLast=0;collapsible=1;marginBottom=0;whiteSpace=wrap;html=1;" vertex="1" parent="WIyWlLk6GJQsqaUBKTNV-1">
          <mxGeometry x="220" y="61" width="160" height="180" as="geometry" />
        </mxCell>
        <mxCell id="I4qgjlkOym51_c_RJzPV-1" value="+ 姓名&lt;br&gt;+ 性别&lt;br&gt;+ 单位&lt;br&gt;+ 生日&lt;br&gt;+ 住址&lt;br&gt;+ 书本借阅记录" style="text;strokeColor=none;fillColor=none;align=left;verticalAlign=top;spacingLeft=4;spacingRight=4;overflow=hidden;rotatable=0;points=[[0,0.5],[1,0.5]];portConstraint=eastwest;whiteSpace=wrap;html=1;" vertex="1" parent="I4qgjlkOym51_c_RJzPV-0">
          <mxGeometry y="26" width="160" height="90" as="geometry" />
        </mxCell>
        <mxCell id="I4qgjlkOym51_c_RJzPV-2" value="" style="line;strokeWidth=1;fillColor=none;align=left;verticalAlign=middle;spacingTop=-1;spacingLeft=3;spacingRight=3;rotatable=0;labelPosition=right;points=[];portConstraint=eastwest;strokeColor=inherit;" vertex="1" parent="I4qgjlkOym51_c_RJzPV-0">
          <mxGeometry y="116" width="160" height="8" as="geometry" />
        </mxCell>
        <mxCell id="I4qgjlkOym51_c_RJzPV-3" value="+ 获取人员信息&lt;br&gt;+ 借阅&lt;br style=&quot;border-color: var(--border-color);&quot;&gt;+ 还书" style="text;strokeColor=none;fillColor=none;align=left;verticalAlign=top;spacingLeft=4;spacingRight=4;overflow=hidden;rotatable=0;points=[[0,0.5],[1,0.5]];portConstraint=eastwest;whiteSpace=wrap;html=1;" vertex="1" parent="I4qgjlkOym51_c_RJzPV-0">
          <mxGeometry y="124" width="160" height="56" as="geometry" />
        </mxCell>
        <mxCell id="I4qgjlkOym51_c_RJzPV-4" value="管理员类" style="swimlane;fontStyle=1;align=center;verticalAlign=top;childLayout=stackLayout;horizontal=1;startSize=26;horizontalStack=0;resizeParent=1;resizeParentMax=0;resizeLast=0;collapsible=1;marginBottom=0;whiteSpace=wrap;html=1;" vertex="1" parent="WIyWlLk6GJQsqaUBKTNV-1">
          <mxGeometry x="120" y="300" width="160" height="130" as="geometry" />
        </mxCell>
        <mxCell id="I4qgjlkOym51_c_RJzPV-5" value="+ 管理员ID" style="text;strokeColor=none;fillColor=none;align=left;verticalAlign=top;spacingLeft=4;spacingRight=4;overflow=hidden;rotatable=0;points=[[0,0.5],[1,0.5]];portConstraint=eastwest;whiteSpace=wrap;html=1;" vertex="1" parent="I4qgjlkOym51_c_RJzPV-4">
          <mxGeometry y="26" width="160" height="24" as="geometry" />
        </mxCell>
        <mxCell id="I4qgjlkOym51_c_RJzPV-6" value="" style="line;strokeWidth=1;fillColor=none;align=left;verticalAlign=middle;spacingTop=-1;spacingLeft=3;spacingRight=3;rotatable=0;labelPosition=right;points=[];portConstraint=eastwest;strokeColor=inherit;" vertex="1" parent="I4qgjlkOym51_c_RJzPV-4">
          <mxGeometry y="50" width="160" height="8" as="geometry" />
        </mxCell>
        <mxCell id="I4qgjlkOym51_c_RJzPV-7" value="+ 删除人员借阅记录&lt;br&gt;+ 添加人员借阅记录仪&lt;br&gt;+ 修改人员借阅时间&lt;br style=&quot;border-color: var(--border-color);&quot;&gt;+ 修改人员借阅截止时间" style="text;strokeColor=none;fillColor=none;align=left;verticalAlign=top;spacingLeft=4;spacingRight=4;overflow=hidden;rotatable=0;points=[[0,0.5],[1,0.5]];portConstraint=eastwest;whiteSpace=wrap;html=1;" vertex="1" parent="I4qgjlkOym51_c_RJzPV-4">
          <mxGeometry y="58" width="160" height="72" as="geometry" />
        </mxCell>
        <mxCell id="I4qgjlkOym51_c_RJzPV-9" value="读者类" style="swimlane;fontStyle=1;align=center;verticalAlign=top;childLayout=stackLayout;horizontal=1;startSize=26;horizontalStack=0;resizeParent=1;resizeParentMax=0;resizeLast=0;collapsible=1;marginBottom=0;whiteSpace=wrap;html=1;" vertex="1" parent="WIyWlLk6GJQsqaUBKTNV-1">
          <mxGeometry x="320" y="320" width="160" height="90" as="geometry" />
        </mxCell>
        <mxCell id="I4qgjlkOym51_c_RJzPV-10" value="+ 读者ID" style="text;strokeColor=none;fillColor=none;align=left;verticalAlign=top;spacingLeft=4;spacingRight=4;overflow=hidden;rotatable=0;points=[[0,0.5],[1,0.5]];portConstraint=eastwest;whiteSpace=wrap;html=1;" vertex="1" parent="I4qgjlkOym51_c_RJzPV-9">
          <mxGeometry y="26" width="160" height="24" as="geometry" />
        </mxCell>
        <mxCell id="I4qgjlkOym51_c_RJzPV-11" value="" style="line;strokeWidth=1;fillColor=none;align=left;verticalAlign=middle;spacingTop=-1;spacingLeft=3;spacingRight=3;rotatable=0;labelPosition=right;points=[];portConstraint=eastwest;strokeColor=inherit;" vertex="1" parent="I4qgjlkOym51_c_RJzPV-9">
          <mxGeometry y="50" width="160" height="8" as="geometry" />
        </mxCell>
        <mxCell id="I4qgjlkOym51_c_RJzPV-12" value="+ 使用电脑" style="text;strokeColor=none;fillColor=none;align=left;verticalAlign=top;spacingLeft=4;spacingRight=4;overflow=hidden;rotatable=0;points=[[0,0.5],[1,0.5]];portConstraint=eastwest;whiteSpace=wrap;html=1;" vertex="1" parent="I4qgjlkOym51_c_RJzPV-9">
          <mxGeometry y="58" width="160" height="32" as="geometry" />
        </mxCell>
        <mxCell id="I4qgjlkOym51_c_RJzPV-13" value="" style="triangle;whiteSpace=wrap;html=1;rotation=-45;" vertex="1" parent="WIyWlLk6GJQsqaUBKTNV-1">
          <mxGeometry x="260" y="240" width="20" height="26" as="geometry" />
        </mxCell>
        <mxCell id="I4qgjlkOym51_c_RJzPV-14" value="" style="triangle;whiteSpace=wrap;html=1;rotation=-135;" vertex="1" parent="WIyWlLk6GJQsqaUBKTNV-1">
          <mxGeometry x="320" y="240" width="20" height="26" as="geometry" />
        </mxCell>
        <mxCell id="I4qgjlkOym51_c_RJzPV-15" value="" style="endArrow=none;html=1;rounded=0;exitX=0.5;exitY=0;exitDx=0;exitDy=0;entryX=0;entryY=0.5;entryDx=0;entryDy=0;" edge="1" parent="WIyWlLk6GJQsqaUBKTNV-1" source="I4qgjlkOym51_c_RJzPV-4" target="I4qgjlkOym51_c_RJzPV-13">
          <mxGeometry width="50" height="50" relative="1" as="geometry">
            <mxPoint x="360" y="310" as="sourcePoint" />
            <mxPoint x="410" y="260" as="targetPoint" />
          </mxGeometry>
        </mxCell>
        <mxCell id="I4qgjlkOym51_c_RJzPV-16" value="" style="endArrow=none;html=1;rounded=0;entryX=0;entryY=0.5;entryDx=0;entryDy=0;exitX=0.5;exitY=0;exitDx=0;exitDy=0;" edge="1" parent="WIyWlLk6GJQsqaUBKTNV-1" source="I4qgjlkOym51_c_RJzPV-9" target="I4qgjlkOym51_c_RJzPV-14">
          <mxGeometry width="50" height="50" relative="1" as="geometry">
            <mxPoint x="360" y="310" as="sourcePoint" />
            <mxPoint x="410" y="260" as="targetPoint" />
          </mxGeometry>
        </mxCell>
        <mxCell id="I4qgjlkOym51_c_RJzPV-19" value="图书类" style="swimlane;fontStyle=1;align=center;verticalAlign=top;childLayout=stackLayout;horizontal=1;startSize=26;horizontalStack=0;resizeParent=1;resizeParentMax=0;resizeLast=0;collapsible=1;marginBottom=0;whiteSpace=wrap;html=1;" vertex="1" parent="WIyWlLk6GJQsqaUBKTNV-1">
          <mxGeometry x="120" y="525" width="160" height="120" as="geometry" />
        </mxCell>
        <mxCell id="I4qgjlkOym51_c_RJzPV-20" value="+ 书本ID&lt;br&gt;+ 书本名称&lt;br&gt;+ 借阅状态&lt;br&gt;+ 可借阅数量" style="text;strokeColor=none;fillColor=none;align=left;verticalAlign=top;spacingLeft=4;spacingRight=4;overflow=hidden;rotatable=0;points=[[0,0.5],[1,0.5]];portConstraint=eastwest;whiteSpace=wrap;html=1;" vertex="1" parent="I4qgjlkOym51_c_RJzPV-19">
          <mxGeometry y="26" width="160" height="64" as="geometry" />
        </mxCell>
        <mxCell id="I4qgjlkOym51_c_RJzPV-21" value="" style="line;strokeWidth=1;fillColor=none;align=left;verticalAlign=middle;spacingTop=-1;spacingLeft=3;spacingRight=3;rotatable=0;labelPosition=right;points=[];portConstraint=eastwest;strokeColor=inherit;" vertex="1" parent="I4qgjlkOym51_c_RJzPV-19">
          <mxGeometry y="90" width="160" height="8" as="geometry" />
        </mxCell>
        <mxCell id="I4qgjlkOym51_c_RJzPV-22" value="+ &lt;font style=&quot;font-size: 12px;&quot;&gt;获取图书信息&lt;/font&gt;" style="text;strokeColor=none;fillColor=none;align=left;verticalAlign=top;spacingLeft=4;spacingRight=4;overflow=hidden;rotatable=0;points=[[0,0.5],[1,0.5]];portConstraint=eastwest;whiteSpace=wrap;html=1;" vertex="1" parent="I4qgjlkOym51_c_RJzPV-19">
          <mxGeometry y="98" width="160" height="22" as="geometry" />
        </mxCell>
        <mxCell id="I4qgjlkOym51_c_RJzPV-23" value="计算机类" style="swimlane;fontStyle=1;align=center;verticalAlign=top;childLayout=stackLayout;horizontal=1;startSize=26;horizontalStack=0;resizeParent=1;resizeParentMax=0;resizeLast=0;collapsible=1;marginBottom=0;whiteSpace=wrap;html=1;" vertex="1" parent="WIyWlLk6GJQsqaUBKTNV-1">
          <mxGeometry x="320" y="545" width="160" height="100" as="geometry" />
        </mxCell>
        <mxCell id="I4qgjlkOym51_c_RJzPV-24" value="+ 计算机ID&lt;br&gt;+ 计算机占用情况" style="text;strokeColor=none;fillColor=none;align=left;verticalAlign=top;spacingLeft=4;spacingRight=4;overflow=hidden;rotatable=0;points=[[0,0.5],[1,0.5]];portConstraint=eastwest;whiteSpace=wrap;html=1;" vertex="1" parent="I4qgjlkOym51_c_RJzPV-23">
          <mxGeometry y="26" width="160" height="44" as="geometry" />
        </mxCell>
        <mxCell id="I4qgjlkOym51_c_RJzPV-25" value="" style="line;strokeWidth=1;fillColor=none;align=left;verticalAlign=middle;spacingTop=-1;spacingLeft=3;spacingRight=3;rotatable=0;labelPosition=right;points=[];portConstraint=eastwest;strokeColor=inherit;" vertex="1" parent="I4qgjlkOym51_c_RJzPV-23">
          <mxGeometry y="70" width="160" height="8" as="geometry" />
        </mxCell>
        <mxCell id="I4qgjlkOym51_c_RJzPV-26" value="+ 获取计算机信息" style="text;strokeColor=none;fillColor=none;align=left;verticalAlign=top;spacingLeft=4;spacingRight=4;overflow=hidden;rotatable=0;points=[[0,0.5],[1,0.5]];portConstraint=eastwest;whiteSpace=wrap;html=1;" vertex="1" parent="I4qgjlkOym51_c_RJzPV-23">
          <mxGeometry y="78" width="160" height="22" as="geometry" />
        </mxCell>
        <mxCell id="I4qgjlkOym51_c_RJzPV-27" value="" style="endArrow=none;html=1;rounded=0;exitX=0.5;exitY=0;exitDx=0;exitDy=0;entryX=0.5;entryY=1;entryDx=0;entryDy=0;entryPerimeter=0;" edge="1" parent="WIyWlLk6GJQsqaUBKTNV-1" source="I4qgjlkOym51_c_RJzPV-19" target="I4qgjlkOym51_c_RJzPV-7">
          <mxGeometry width="50" height="50" relative="1" as="geometry">
            <mxPoint x="360" y="480" as="sourcePoint" />
            <mxPoint x="190" y="440" as="targetPoint" />
          </mxGeometry>
        </mxCell>
        <mxCell id="I4qgjlkOym51_c_RJzPV-28" value="" style="endArrow=none;html=1;rounded=0;exitX=0.5;exitY=0;exitDx=0;exitDy=0;entryX=0.5;entryY=1.013;entryDx=0;entryDy=0;entryPerimeter=0;" edge="1" parent="WIyWlLk6GJQsqaUBKTNV-1" source="I4qgjlkOym51_c_RJzPV-23" target="I4qgjlkOym51_c_RJzPV-12">
          <mxGeometry width="50" height="50" relative="1" as="geometry">
            <mxPoint x="329.65999999999997" y="480" as="sourcePoint" />
            <mxPoint x="329.65999999999997" y="420" as="targetPoint" />
          </mxGeometry>
        </mxCell>
        <mxCell id="I4qgjlkOym51_c_RJzPV-29" value="" style="endArrow=none;html=1;rounded=0;entryX=0.5;entryY=1;entryDx=0;entryDy=0;entryPerimeter=0;exitX=0.5;exitY=0;exitDx=0;exitDy=0;" edge="1" parent="WIyWlLk6GJQsqaUBKTNV-1" source="I4qgjlkOym51_c_RJzPV-19" target="I4qgjlkOym51_c_RJzPV-12">
          <mxGeometry width="50" height="50" relative="1" as="geometry">
            <mxPoint x="360" y="500" as="sourcePoint" />
            <mxPoint x="410" y="450" as="targetPoint" />
          </mxGeometry>
        </mxCell>
        <mxCell id="I4qgjlkOym51_c_RJzPV-32" value="添加一条借书记录" style="shape=note;whiteSpace=wrap;html=1;backgroundOutline=1;darkOpacity=0.05;size=10;" vertex="1" parent="WIyWlLk6GJQsqaUBKTNV-1">
          <mxGeometry x="40" y="160" width="100" height="40" as="geometry" />
        </mxCell>
        <mxCell id="I4qgjlkOym51_c_RJzPV-34" value="删除一条借书记录" style="shape=note;whiteSpace=wrap;html=1;backgroundOutline=1;darkOpacity=0.05;size=10;" vertex="1" parent="WIyWlLk6GJQsqaUBKTNV-1">
          <mxGeometry x="40" y="233" width="100" height="40" as="geometry" />
        </mxCell>
        <mxCell id="I4qgjlkOym51_c_RJzPV-40" value="书本借阅记录类" style="swimlane;fontStyle=1;align=center;verticalAlign=top;childLayout=stackLayout;horizontal=1;startSize=26;horizontalStack=0;resizeParent=1;resizeParentMax=0;resizeLast=0;collapsible=1;marginBottom=0;whiteSpace=wrap;html=1;" vertex="1" parent="WIyWlLk6GJQsqaUBKTNV-1">
          <mxGeometry x="480" y="110" width="160" height="140" as="geometry">
            <mxRectangle x="440" y="90" width="120" height="30" as="alternateBounds" />
          </mxGeometry>
        </mxCell>
        <mxCell id="I4qgjlkOym51_c_RJzPV-41" value="+ 借阅的书本ID合集&lt;br&gt;+ 书本借阅时间合集&lt;br&gt;+ 书本还书截止时间合集" style="text;strokeColor=none;fillColor=none;align=left;verticalAlign=top;spacingLeft=4;spacingRight=4;overflow=hidden;rotatable=0;points=[[0,0.5],[1,0.5]];portConstraint=eastwest;whiteSpace=wrap;html=1;" vertex="1" parent="I4qgjlkOym51_c_RJzPV-40">
          <mxGeometry y="26" width="160" height="54" as="geometry" />
        </mxCell>
        <mxCell id="I4qgjlkOym51_c_RJzPV-42" value="" style="line;strokeWidth=1;fillColor=none;align=left;verticalAlign=middle;spacingTop=-1;spacingLeft=3;spacingRight=3;rotatable=0;labelPosition=right;points=[];portConstraint=eastwest;strokeColor=inherit;" vertex="1" parent="I4qgjlkOym51_c_RJzPV-40">
          <mxGeometry y="80" width="160" height="8" as="geometry" />
        </mxCell>
        <mxCell id="I4qgjlkOym51_c_RJzPV-43" value="+ 获取借阅信息&lt;br&gt;+ 借阅-添加借书记录&lt;br&gt;+ 还书-删除借书记录" style="text;strokeColor=none;fillColor=none;align=left;verticalAlign=top;spacingLeft=4;spacingRight=4;overflow=hidden;rotatable=0;points=[[0,0.5],[1,0.5]];portConstraint=eastwest;whiteSpace=wrap;html=1;" vertex="1" parent="I4qgjlkOym51_c_RJzPV-40">
          <mxGeometry y="88" width="160" height="52" as="geometry" />
        </mxCell>
        <mxCell id="I4qgjlkOym51_c_RJzPV-44" value="" style="endArrow=none;dashed=1;html=1;rounded=0;exitX=1;exitY=0.5;exitDx=0;exitDy=0;entryX=0;entryY=0.5;entryDx=0;entryDy=0;" edge="1" parent="WIyWlLk6GJQsqaUBKTNV-1" source="I4qgjlkOym51_c_RJzPV-1" target="I4qgjlkOym51_c_RJzPV-41">
          <mxGeometry width="50" height="50" relative="1" as="geometry">
            <mxPoint x="590" y="200" as="sourcePoint" />
            <mxPoint x="640" y="150" as="targetPoint" />
          </mxGeometry>
        </mxCell>
        <mxCell id="I4qgjlkOym51_c_RJzPV-45" value="" style="endArrow=classic;html=1;rounded=0;entryX=0;entryY=0.5;entryDx=0;entryDy=0;" edge="1" parent="WIyWlLk6GJQsqaUBKTNV-1" target="I4qgjlkOym51_c_RJzPV-41">
          <mxGeometry width="50" height="50" relative="1" as="geometry">
            <mxPoint x="470" y="161" as="sourcePoint" />
            <mxPoint x="630" y="150" as="targetPoint" />
          </mxGeometry>
        </mxCell>
        <mxCell id="I4qgjlkOym51_c_RJzPV-46" value="《友元》" style="text;html=1;strokeColor=none;fillColor=none;align=center;verticalAlign=middle;whiteSpace=wrap;rounded=0;" vertex="1" parent="WIyWlLk6GJQsqaUBKTNV-1">
          <mxGeometry x="400" y="120" width="60" height="30" as="geometry" />
        </mxCell>
        <mxCell id="I4qgjlkOym51_c_RJzPV-47" value="" style="endArrow=none;html=1;rounded=0;exitX=0;exitY=0;exitDx=100;exitDy=25;exitPerimeter=0;entryX=0.063;entryY=0.5;entryDx=0;entryDy=0;entryPerimeter=0;" edge="1" parent="WIyWlLk6GJQsqaUBKTNV-1" source="I4qgjlkOym51_c_RJzPV-32" target="I4qgjlkOym51_c_RJzPV-3">
          <mxGeometry width="50" height="50" relative="1" as="geometry">
            <mxPoint x="540" y="330" as="sourcePoint" />
            <mxPoint x="590" y="280" as="targetPoint" />
          </mxGeometry>
        </mxCell>
        <mxCell id="I4qgjlkOym51_c_RJzPV-48" value="" style="endArrow=none;html=1;rounded=0;exitX=0;exitY=0;exitDx=100;exitDy=25;exitPerimeter=0;" edge="1" parent="WIyWlLk6GJQsqaUBKTNV-1" source="I4qgjlkOym51_c_RJzPV-34">
          <mxGeometry width="50" height="50" relative="1" as="geometry">
            <mxPoint x="140" y="202" as="sourcePoint" />
            <mxPoint x="230" y="227" as="targetPoint" />
          </mxGeometry>
        </mxCell>
        <mxCell id="I4qgjlkOym51_c_RJzPV-49" value="使 用" style="text;html=1;strokeColor=none;fillColor=none;align=center;verticalAlign=middle;whiteSpace=wrap;rounded=0;" vertex="1" parent="WIyWlLk6GJQsqaUBKTNV-1">
          <mxGeometry x="185" y="436" width="60" height="30" as="geometry" />
        </mxCell>
        <mxCell id="I4qgjlkOym51_c_RJzPV-50" value="被 使 用" style="text;html=1;strokeColor=none;fillColor=none;align=center;verticalAlign=middle;whiteSpace=wrap;rounded=0;" vertex="1" parent="WIyWlLk6GJQsqaUBKTNV-1">
          <mxGeometry x="148" y="480" width="60" height="30" as="geometry" />
        </mxCell>
        <mxCell id="I4qgjlkOym51_c_RJzPV-51" value="" style="triangle;whiteSpace=wrap;html=1;fillColor=#000000;rotation=-90;" vertex="1" parent="WIyWlLk6GJQsqaUBKTNV-1">
          <mxGeometry x="184.5" y="473.5" width="11" height="8" as="geometry" />
        </mxCell>
        <mxCell id="I4qgjlkOym51_c_RJzPV-55" value="" style="triangle;whiteSpace=wrap;html=1;fillColor=#000000;rotation=90;" vertex="1" parent="WIyWlLk6GJQsqaUBKTNV-1">
          <mxGeometry x="204.5" y="462" width="11" height="8" as="geometry" />
        </mxCell>
        <mxCell id="I4qgjlkOym51_c_RJzPV-56" value="*" style="text;html=1;strokeColor=none;fillColor=none;align=center;verticalAlign=middle;whiteSpace=wrap;rounded=0;" vertex="1" parent="WIyWlLk6GJQsqaUBKTNV-1">
          <mxGeometry x="176" y="425" width="60" height="30" as="geometry" />
        </mxCell>
        <mxCell id="I4qgjlkOym51_c_RJzPV-57" value="1···*" style="text;html=1;strokeColor=none;fillColor=none;align=center;verticalAlign=middle;whiteSpace=wrap;rounded=0;" vertex="1" parent="WIyWlLk6GJQsqaUBKTNV-1">
          <mxGeometry x="155" y="497" width="60" height="30" as="geometry" />
        </mxCell>
        <mxCell id="I4qgjlkOym51_c_RJzPV-58" value="使 用" style="text;html=1;strokeColor=none;fillColor=none;align=center;verticalAlign=middle;whiteSpace=wrap;rounded=0;rotation=-30;" vertex="1" parent="WIyWlLk6GJQsqaUBKTNV-1">
          <mxGeometry x="264" y="446" width="60" height="30" as="geometry" />
        </mxCell>
        <mxCell id="I4qgjlkOym51_c_RJzPV-59" value="被 使 用" style="text;html=1;strokeColor=none;fillColor=none;align=center;verticalAlign=middle;whiteSpace=wrap;rounded=0;rotation=-30;" vertex="1" parent="WIyWlLk6GJQsqaUBKTNV-1">
          <mxGeometry x="264" y="467" width="60" height="30" as="geometry" />
        </mxCell>
        <mxCell id="I4qgjlkOym51_c_RJzPV-60" value="" style="triangle;whiteSpace=wrap;html=1;fillColor=#000000;rotation=-40;" vertex="1" parent="WIyWlLk6GJQsqaUBKTNV-1">
          <mxGeometry x="313.5" y="461" width="11" height="8" as="geometry" />
        </mxCell>
        <mxCell id="I4qgjlkOym51_c_RJzPV-61" value="" style="triangle;whiteSpace=wrap;html=1;fillColor=#000000;rotation=-225;" vertex="1" parent="WIyWlLk6GJQsqaUBKTNV-1">
          <mxGeometry x="268.5" y="472" width="11" height="8" as="geometry" />
        </mxCell>
        <mxCell id="I4qgjlkOym51_c_RJzPV-64" value="*" style="text;html=1;strokeColor=none;fillColor=none;align=center;verticalAlign=middle;whiteSpace=wrap;rounded=0;" vertex="1" parent="WIyWlLk6GJQsqaUBKTNV-1">
          <mxGeometry x="313.5" y="416" width="60" height="30" as="geometry" />
        </mxCell>
        <mxCell id="I4qgjlkOym51_c_RJzPV-65" value="1···*" style="text;html=1;strokeColor=none;fillColor=none;align=center;verticalAlign=middle;whiteSpace=wrap;rounded=0;" vertex="1" parent="WIyWlLk6GJQsqaUBKTNV-1">
          <mxGeometry x="219.5" y="497" width="60" height="30" as="geometry" />
        </mxCell>
        <mxCell id="I4qgjlkOym51_c_RJzPV-66" value="使 用" style="text;html=1;strokeColor=none;fillColor=none;align=center;verticalAlign=middle;whiteSpace=wrap;rounded=0;" vertex="1" parent="WIyWlLk6GJQsqaUBKTNV-1">
          <mxGeometry x="388.5" y="451" width="60" height="30" as="geometry" />
        </mxCell>
        <mxCell id="I4qgjlkOym51_c_RJzPV-67" value="被 使 用" style="text;html=1;strokeColor=none;fillColor=none;align=center;verticalAlign=middle;whiteSpace=wrap;rounded=0;" vertex="1" parent="WIyWlLk6GJQsqaUBKTNV-1">
          <mxGeometry x="351.5" y="495" width="60" height="30" as="geometry" />
        </mxCell>
        <mxCell id="I4qgjlkOym51_c_RJzPV-68" value="" style="triangle;whiteSpace=wrap;html=1;fillColor=#000000;rotation=-90;" vertex="1" parent="WIyWlLk6GJQsqaUBKTNV-1">
          <mxGeometry x="388" y="488.5" width="11" height="8" as="geometry" />
        </mxCell>
        <mxCell id="I4qgjlkOym51_c_RJzPV-69" value="" style="triangle;whiteSpace=wrap;html=1;fillColor=#000000;rotation=90;" vertex="1" parent="WIyWlLk6GJQsqaUBKTNV-1">
          <mxGeometry x="408" y="477" width="11" height="8" as="geometry" />
        </mxCell>
        <mxCell id="I4qgjlkOym51_c_RJzPV-70" value="*" style="text;html=1;strokeColor=none;fillColor=none;align=center;verticalAlign=middle;whiteSpace=wrap;rounded=0;" vertex="1" parent="WIyWlLk6GJQsqaUBKTNV-1">
          <mxGeometry x="380" y="416" width="60" height="30" as="geometry" />
        </mxCell>
        <mxCell id="I4qgjlkOym51_c_RJzPV-71" value="1···*" style="text;html=1;strokeColor=none;fillColor=none;align=center;verticalAlign=middle;whiteSpace=wrap;rounded=0;" vertex="1" parent="WIyWlLk6GJQsqaUBKTNV-1">
          <mxGeometry x="388.5" y="510" width="60" height="30" as="geometry" />
        </mxCell>
      </root>
    </mxGraphModel>
  </diagram>
</mxfile>
